<svg xmlns="http://www.w3.org/2000/svg" xmlns:xlink="http://www.w3.org/1999/xlink" width="168" zoomAndPan="magnify" viewBox="0 0 126 30.000001" height="40" preserveAspectRatio="xMidYMid meet" version="1.0"><defs><g/><clipPath id="5972067ef0"><path d="M 2.03125 0 L 123.964844 0 L 123.964844 29.03125 L 2.03125 29.03125 Z M 2.03125 0 " clip-rule="nonzero"/></clipPath><clipPath id="50853c0e93"><path d="M 26.816406 4.699219 L 47.988281 4.699219 L 47.988281 25.9375 L 26.816406 25.9375 Z M 26.816406 4.699219 " clip-rule="nonzero"/></clipPath><clipPath id="6415580ea4"><path d="M 46.171875 3 L 90 3 L 90 9.699219 L 46.171875 9.699219 Z M 46.171875 3 " clip-rule="nonzero"/></clipPath><clipPath id="b26b4956ff"><path d="M 94 10 L 99.21875 10 L 99.21875 15 L 94 15 Z M 94 10 " clip-rule="nonzero"/></clipPath><clipPath id="86a7dd6515"><path d="M 93.273438 8.207031 L 97 8.207031 L 97 12 L 93.273438 12 Z M 93.273438 8.207031 " clip-rule="nonzero"/></clipPath><clipPath id="0b7a29cc3f"><path d="M 97 9 L 99.21875 9 L 99.21875 12 L 97 12 Z M 97 9 " clip-rule="nonzero"/></clipPath><clipPath id="43e4c761a6"><path d="M 96 8.207031 L 98 8.207031 L 98 10 L 96 10 Z M 96 8.207031 " clip-rule="nonzero"/></clipPath></defs><g clip-path="url(#5972067ef0)"><path fill="#ffffff" d="M 2.03125 0 L 123.96875 0 L 123.96875 29.03125 L 2.03125 29.03125 Z M 2.03125 0 " fill-opacity="1" fill-rule="nonzero"/><path fill="#ffffff" d="M 2.03125 0 L 123.96875 0 L 123.96875 29.03125 L 2.03125 29.03125 Z M 2.03125 0 " fill-opacity="1" fill-rule="nonzero"/></g><g clip-path="url(#50853c0e93)"><path fill="#7f00ff" d="M 31.851562 8.632812 L 31.414062 8.625 L 30.542969 8.613281 L 29.230469 8.589844 L 29.015625 8.585938 L 28.902344 8.585938 C 28.847656 8.585938 28.792969 8.589844 28.742188 8.589844 C 28.523438 8.609375 28.308594 8.664062 28.101562 8.746094 C 27.902344 8.832031 27.714844 8.957031 27.554688 9.101562 C 27.390625 9.25 27.253906 9.421875 27.144531 9.617188 C 27.03125 9.808594 26.960938 10.023438 26.914062 10.238281 C 26.90625 10.292969 26.898438 10.347656 26.894531 10.402344 C 26.890625 10.457031 26.886719 10.511719 26.886719 10.5625 L 26.882812 10.789062 L 26.878906 11.226562 L 26.871094 12.097656 L 26.851562 13.839844 L 26.835938 17.324219 L 26.835938 20.816406 L 26.847656 23.429688 L 26.847656 23.765625 C 26.847656 23.820312 26.847656 23.878906 26.851562 23.933594 C 26.878906 24.15625 26.9375 24.371094 27.03125 24.578125 C 27.214844 24.984375 27.542969 25.3125 27.929688 25.519531 C 28.125 25.621094 28.339844 25.691406 28.558594 25.722656 C 28.667969 25.738281 28.777344 25.742188 28.886719 25.746094 L 29.105469 25.742188 L 30.851562 25.691406 L 31.726562 25.664062 L 32.160156 25.652344 C 32.238281 25.652344 32.296875 25.648438 32.359375 25.648438 C 32.421875 25.648438 32.484375 25.648438 32.542969 25.652344 C 32.792969 25.660156 33.039062 25.695312 33.285156 25.761719 C 33.34375 25.777344 33.402344 25.792969 33.460938 25.8125 L 33.671875 25.875 L 33.890625 25.941406 C 33.972656 25.960938 34.050781 25.984375 34.128906 26.003906 C 34.449219 26.078125 34.777344 26.121094 35.109375 26.125 C 35.148438 26.125 35.191406 26.125 35.230469 26.125 L 35.347656 26.121094 L 35.5625 26.117188 L 36 26.101562 L 37.742188 26.050781 L 39.480469 25.992188 L 39.917969 25.972656 L 40.136719 25.964844 L 40.25 25.960938 L 40.371094 25.960938 C 40.695312 25.9375 41.015625 25.875 41.320312 25.765625 C 41.628906 25.660156 41.910156 25.515625 42.175781 25.339844 C 42.226562 25.304688 42.316406 25.242188 42.410156 25.171875 C 42.632812 25.007812 42.894531 24.917969 43.167969 24.902344 C 43.601562 24.882812 44.046875 24.863281 44.488281 24.835938 L 46.226562 24.742188 C 46.8125 24.707031 47.386719 24.675781 47.96875 24.628906 C 47.386719 24.589844 46.804688 24.554688 46.226562 24.515625 L 44.488281 24.421875 C 44.070312 24.402344 43.660156 24.382812 43.242188 24.363281 C 43.160156 24.359375 42.820312 24.355469 42.683594 24.386719 C 42.457031 24.441406 41.898438 24.738281 41.828125 24.773438 C 41.597656 24.898438 41.355469 25.003906 41.101562 25.066406 C 40.851562 25.125 40.59375 25.160156 40.335938 25.160156 L 40.242188 25.160156 L 39.914062 25.148438 L 39.480469 25.128906 L 37.738281 25.070312 L 35.996094 25.019531 L 35.558594 25.007812 L 35.34375 25.003906 L 35.246094 25 C 35.210938 25 35.183594 24.996094 35.148438 24.996094 C 34.894531 24.976562 34.648438 24.9375 34.410156 24.871094 C 34.351562 24.851562 34.289062 24.832031 34.230469 24.816406 L 34.035156 24.75 L 33.832031 24.675781 C 33.757812 24.648438 33.675781 24.621094 33.597656 24.597656 C 33.285156 24.503906 32.953125 24.441406 32.625 24.410156 C 32.542969 24.402344 32.453125 24.394531 32.375 24.394531 C 32.292969 24.390625 32.203125 24.390625 32.136719 24.390625 L 31.703125 24.390625 L 30.832031 24.386719 L 29.089844 24.382812 L 28.875 24.382812 C 28.835938 24.378906 28.808594 24.378906 28.769531 24.367188 C 28.703125 24.351562 28.636719 24.332031 28.574219 24.292969 C 28.457031 24.222656 28.351562 24.113281 28.300781 23.988281 C 28.277344 23.925781 28.261719 23.855469 28.25 23.789062 C 28.25 23.769531 28.25 23.753906 28.25 23.738281 L 28.25 23.4375 L 28.257812 22.5625 L 28.28125 20.824219 L 28.300781 17.332031 L 28.300781 13.84375 L 28.289062 11.230469 L 28.285156 10.792969 L 28.285156 10.582031 C 28.285156 10.5625 28.285156 10.542969 28.285156 10.523438 C 28.285156 10.507812 28.289062 10.488281 28.289062 10.472656 C 28.324219 10.199219 28.570312 9.960938 28.855469 9.929688 C 28.875 9.929688 28.890625 9.929688 28.910156 9.929688 C 28.914062 9.929688 28.925781 9.929688 28.933594 9.929688 L 29.011719 9.929688 L 29.230469 9.925781 L 29.664062 9.917969 L 30.539062 9.902344 L 31.410156 9.886719 L 31.847656 9.878906 L 32.0625 9.875 L 32.195312 9.871094 C 32.273438 9.867188 32.351562 9.859375 32.429688 9.835938 C 32.742188 9.757812 33.007812 9.542969 33.152344 9.265625 C 33.167969 9.226562 33.1875 9.191406 33.203125 9.152344 C 33.210938 9.132812 33.210938 9.132812 33.21875 9.117188 L 33.222656 9.09375 L 33.261719 8.988281 L 33.335938 8.789062 L 33.628906 7.964844 L 33.921875 7.144531 L 34.0625 6.734375 L 34.136719 6.527344 L 34.15625 6.472656 L 34.171875 6.4375 C 34.175781 6.414062 34.1875 6.386719 34.195312 6.371094 C 34.277344 6.1875 34.410156 6.023438 34.570312 5.902344 C 34.738281 5.78125 34.925781 5.695312 35.136719 5.667969 C 35.164062 5.664062 35.191406 5.664062 35.214844 5.660156 L 35.253906 5.65625 C 35.269531 5.65625 35.292969 5.65625 35.308594 5.65625 L 35.527344 5.648438 L 35.964844 5.636719 L 36.839844 5.617188 L 38.585938 5.546875 L 39.019531 5.527344 C 39.160156 5.523438 39.320312 5.515625 39.429688 5.515625 C 39.546875 5.519531 39.667969 5.535156 39.785156 5.570312 C 39.902344 5.605469 40.019531 5.648438 40.125 5.703125 C 40.226562 5.761719 40.332031 5.839844 40.421875 5.921875 C 40.511719 6.003906 40.59375 6.101562 40.660156 6.207031 C 40.726562 6.308594 40.78125 6.425781 40.828125 6.542969 L 40.972656 6.953125 L 41.558594 8.601562 C 41.753906 9.148438 41.949219 9.695312 42.160156 10.238281 C 42.039062 9.671875 41.902344 9.101562 41.769531 8.539062 L 41.363281 6.839844 L 41.265625 6.414062 C 41.222656 6.257812 41.164062 6.105469 41.089844 5.953125 C 41.011719 5.8125 40.914062 5.667969 40.800781 5.542969 C 40.6875 5.421875 40.5625 5.308594 40.429688 5.210938 C 40.289062 5.113281 40.136719 5.039062 39.976562 4.976562 C 39.820312 4.917969 39.648438 4.878906 39.480469 4.859375 C 39.300781 4.839844 39.171875 4.839844 39.019531 4.835938 L 38.585938 4.816406 L 36.84375 4.753906 L 35.96875 4.722656 L 35.535156 4.707031 L 35.316406 4.699219 L 35.195312 4.699219 C 35.152344 4.699219 35.101562 4.699219 35.058594 4.703125 C 34.6875 4.730469 34.320312 4.859375 34.003906 5.058594 C 33.695312 5.269531 33.425781 5.554688 33.25 5.894531 C 33.226562 5.933594 33.210938 5.980469 33.1875 6.027344 L 33.164062 6.089844 L 33.140625 6.140625 L 33.054688 6.34375 L 32.886719 6.746094 L 32.554688 7.550781 L 32.175781 8.417969 C 32.113281 8.554688 31.988281 8.640625 31.851562 8.632812 " fill-opacity="1" fill-rule="nonzero"/></g><path fill="#7f00ff" d="M 42.253906 14.621094 C 42.011719 14.128906 41.683594 13.660156 41.261719 13.265625 L 41.101562 13.125 C 41.046875 13.082031 40.992188 13.03125 40.933594 12.988281 C 40.824219 12.894531 40.703125 12.816406 40.585938 12.730469 C 40.34375 12.574219 40.089844 12.429688 39.820312 12.3125 C 39.6875 12.25 39.546875 12.199219 39.410156 12.148438 C 39.34375 12.125 39.269531 12.105469 39.195312 12.082031 C 39.125 12.066406 39.058594 12.039062 38.984375 12.023438 C 38.839844 11.992188 38.695312 11.953125 38.546875 11.933594 C 38.472656 11.917969 38.398438 11.910156 38.328125 11.894531 L 38.109375 11.875 C 37.8125 11.847656 37.507812 11.847656 37.210938 11.875 C 36.910156 11.898438 36.609375 11.949219 36.3125 12.023438 C 36.019531 12.101562 35.726562 12.199219 35.445312 12.324219 C 35.167969 12.445312 34.894531 12.601562 34.640625 12.769531 C 34.117188 13.101562 33.667969 13.535156 33.285156 14.023438 C 33.09375 14.265625 32.929688 14.53125 32.78125 14.804688 C 32.628906 15.078125 32.507812 15.363281 32.40625 15.660156 C 32.308594 15.953125 32.230469 16.261719 32.179688 16.566406 C 32.128906 16.875 32.101562 17.1875 32.101562 17.496094 C 32.105469 17.808594 32.128906 18.121094 32.179688 18.429688 C 32.230469 18.738281 32.304688 19.042969 32.40625 19.335938 C 32.507812 19.632812 32.632812 19.917969 32.78125 20.191406 C 32.929688 20.46875 33.097656 20.730469 33.285156 20.972656 C 34.046875 21.953125 35.128906 22.675781 36.3125 22.972656 C 36.605469 23.046875 36.910156 23.09375 37.210938 23.121094 C 37.511719 23.148438 37.8125 23.148438 38.109375 23.121094 L 38.332031 23.097656 C 38.40625 23.09375 38.480469 23.078125 38.550781 23.0625 C 38.703125 23.042969 38.84375 23.007812 38.988281 22.972656 C 39.0625 22.957031 39.128906 22.929688 39.199219 22.910156 C 39.273438 22.886719 39.339844 22.867188 39.414062 22.84375 C 39.550781 22.789062 39.691406 22.742188 39.824219 22.679688 C 40.09375 22.5625 40.347656 22.414062 40.589844 22.261719 C 40.707031 22.175781 40.828125 22.097656 40.9375 22.003906 C 40.992188 21.960938 41.050781 21.910156 41.105469 21.867188 L 41.265625 21.726562 C 41.679688 21.335938 42.007812 20.867188 42.257812 20.371094 C 41.507812 21.1875 40.578125 21.757812 39.585938 22.003906 C 39.09375 22.136719 38.585938 22.175781 38.089844 22.152344 C 37.59375 22.132812 37.109375 22.027344 36.652344 21.863281 C 36.199219 21.691406 35.773438 21.460938 35.390625 21.167969 C 35.011719 20.875 34.683594 20.527344 34.414062 20.140625 C 34.144531 19.753906 33.925781 19.328125 33.792969 18.878906 C 33.726562 18.660156 33.667969 18.429688 33.632812 18.199219 C 33.59375 17.96875 33.582031 17.734375 33.578125 17.496094 C 33.578125 17.261719 33.59375 17.027344 33.628906 16.796875 C 33.664062 16.566406 33.71875 16.335938 33.789062 16.117188 C 33.925781 15.664062 34.140625 15.242188 34.410156 14.855469 C 34.679688 14.464844 35.011719 14.117188 35.386719 13.824219 C 35.765625 13.53125 36.191406 13.296875 36.648438 13.128906 C 37.101562 12.960938 37.585938 12.859375 38.089844 12.839844 C 38.585938 12.816406 39.089844 12.855469 39.585938 12.988281 C 40.578125 13.230469 41.503906 13.808594 42.253906 14.621094 " fill-opacity="1" fill-rule="nonzero"/><path fill="#1c1a1a" d="M 36.203125 15.652344 C 36.320312 15.523438 36.433594 15.398438 36.5625 15.285156 C 36.621094 15.226562 36.683594 15.171875 36.753906 15.113281 C 36.820312 15.0625 36.890625 15.011719 36.957031 14.964844 C 37.097656 14.871094 37.242188 14.792969 37.390625 14.722656 C 37.539062 14.65625 37.691406 14.589844 37.851562 14.550781 C 38.164062 14.457031 38.488281 14.425781 38.804688 14.433594 C 39.125 14.453125 39.433594 14.511719 39.726562 14.613281 C 40.019531 14.726562 40.292969 14.878906 40.542969 15.074219 L 40.632812 15.148438 C 40.667969 15.171875 40.695312 15.199219 40.71875 15.226562 C 40.773438 15.28125 40.828125 15.335938 40.886719 15.386719 L 41.035156 15.5625 L 41.074219 15.605469 L 41.105469 15.65625 L 41.171875 15.753906 C 41.34375 16.007812 41.484375 16.285156 41.566406 16.585938 C 41.652344 16.878906 41.699219 17.1875 41.703125 17.496094 C 41.699219 17.804688 41.652344 18.109375 41.566406 18.410156 C 41.484375 18.707031 41.335938 18.984375 41.171875 19.242188 L 41.105469 19.339844 L 41.074219 19.390625 L 41.035156 19.433594 L 40.886719 19.609375 C 40.832031 19.664062 40.773438 19.71875 40.71875 19.769531 C 40.691406 19.796875 40.660156 19.824219 40.632812 19.847656 L 40.542969 19.921875 C 40.300781 20.113281 40.019531 20.269531 39.726562 20.382812 C 39.433594 20.484375 39.121094 20.542969 38.804688 20.5625 C 38.484375 20.570312 38.164062 20.535156 37.851562 20.445312 C 37.695312 20.40625 37.542969 20.34375 37.390625 20.273438 C 37.238281 20.199219 37.097656 20.117188 36.957031 20.03125 C 36.882812 19.988281 36.820312 19.933594 36.753906 19.878906 C 36.691406 19.824219 36.621094 19.777344 36.5625 19.710938 C 36.429688 19.597656 36.324219 19.472656 36.203125 19.34375 C 36.363281 19.648438 36.574219 19.941406 36.835938 20.179688 L 36.933594 20.269531 C 36.96875 20.296875 37 20.324219 37.039062 20.355469 C 37.101562 20.414062 37.179688 20.457031 37.253906 20.511719 C 37.40625 20.605469 37.566406 20.695312 37.734375 20.769531 C 38.066406 20.917969 38.429688 21 38.800781 21.023438 C 39.171875 21.042969 39.542969 21.007812 39.90625 20.90625 C 40.269531 20.804688 40.613281 20.636719 40.917969 20.417969 L 41.03125 20.339844 C 41.070312 20.3125 41.109375 20.285156 41.148438 20.253906 L 41.359375 20.0625 C 41.421875 20 41.484375 19.925781 41.554688 19.855469 L 41.605469 19.800781 L 41.648438 19.746094 L 41.734375 19.632812 C 41.757812 19.59375 41.792969 19.554688 41.816406 19.519531 L 41.890625 19.398438 C 41.941406 19.316406 41.988281 19.234375 42.03125 19.148438 C 42.070312 19.0625 42.113281 18.976562 42.152344 18.890625 L 42.25 18.625 C 42.363281 18.261719 42.421875 17.882812 42.425781 17.503906 C 42.417969 17.128906 42.363281 16.746094 42.25 16.386719 L 42.152344 16.121094 C 42.113281 16.035156 42.070312 15.945312 42.03125 15.863281 C 41.992188 15.777344 41.9375 15.695312 41.890625 15.613281 L 41.816406 15.492188 C 41.792969 15.453125 41.761719 15.414062 41.734375 15.378906 L 41.648438 15.265625 L 41.605469 15.210938 L 41.554688 15.15625 C 41.492188 15.089844 41.429688 15.015625 41.359375 14.945312 L 41.148438 14.753906 C 41.109375 14.722656 41.074219 14.695312 41.03125 14.671875 L 40.917969 14.589844 C 40.613281 14.375 40.269531 14.207031 39.90625 14.101562 C 39.542969 14.003906 39.171875 13.96875 38.800781 13.984375 C 38.429688 14.007812 38.070312 14.097656 37.734375 14.242188 C 37.566406 14.316406 37.40625 14.402344 37.253906 14.5 C 37.101562 14.601562 36.960938 14.707031 36.832031 14.832031 C 36.574219 15.0625 36.363281 15.347656 36.203125 15.652344 " fill-opacity="1" fill-rule="nonzero"/><g clip-path="url(#6415580ea4)"><path fill="#7f00ff" d="M 46.683594 9.257812 C 49.34375 7.882812 52.449219 7.566406 55.402344 7.492188 C 58.582031 7.410156 61.75 7.621094 64.910156 7.910156 C 68.105469 8.207031 71.292969 8.578125 74.496094 8.804688 C 76.089844 8.914062 77.691406 8.976562 79.296875 8.988281 C 80.796875 8.996094 82.320312 9.003906 83.820312 8.824219 C 85.335938 8.644531 86.847656 8.21875 88.003906 7.175781 C 89.019531 6.261719 89.753906 4.867188 89.472656 3.484375 C 89.355469 2.902344 88.449219 3.039062 88.449219 3.617188 C 88.457031 4.851562 87.976562 5.890625 87.027344 6.667969 C 85.957031 7.546875 84.527344 7.855469 83.199219 8.019531 C 80.171875 8.371094 77.09375 8.253906 74.0625 8.046875 C 67.90625 7.609375 61.765625 6.605469 55.582031 6.824219 C 52.433594 6.921875 49.246094 7.285156 46.503906 8.949219 C 46.304688 9.070312 46.476562 9.367188 46.683594 9.257812 Z M 46.683594 9.257812 " fill-opacity="1" fill-rule="nonzero"/></g><path fill="#7f00ff" d="M 47.878906 7.25 C 50.578125 6.261719 53.367188 6.027344 56.21875 6.007812 C 56.371094 6.007812 56.425781 5.746094 56.253906 5.726562 C 53.402344 5.300781 50.433594 5.980469 47.816406 7.132812 C 47.761719 7.160156 47.804688 7.277344 47.878906 7.25 Z M 47.878906 7.25 " fill-opacity="1" fill-rule="nonzero"/><path fill="#7f00ff" d="M 86.945312 8.832031 C 87.988281 8.6875 88.945312 8.191406 89.671875 7.4375 C 90.042969 7.058594 90.359375 6.625 90.574219 6.144531 C 90.757812 5.765625 91.09375 5.085938 90.820312 4.695312 C 90.695312 4.515625 90.476562 4.488281 90.3125 4.632812 C 90.003906 4.894531 90.050781 5.492188 89.925781 5.871094 C 89.78125 6.308594 89.570312 6.714844 89.308594 7.085938 C 88.71875 7.890625 87.878906 8.480469 86.917969 8.742188 C 86.855469 8.75 86.882812 8.84375 86.945312 8.832031 Z M 86.945312 8.832031 " fill-opacity="1" fill-rule="nonzero"/><g clip-path="url(#b26b4956ff)"><path fill="#7f00ff" d="M 96.699219 10.070312 L 96.691406 10.070312 C 96.652344 12.320312 96.34375 12.667969 94.167969 12.71875 L 94.167969 12.730469 C 96.355469 12.78125 96.65625 13.132812 96.691406 15.414062 L 96.695312 15.414062 C 96.730469 13.148438 97.03125 12.785156 99.179688 12.730469 L 99.179688 12.71875 C 97.042969 12.664062 96.734375 12.304688 96.699219 10.070312 " fill-opacity="1" fill-rule="nonzero"/></g><g clip-path="url(#86a7dd6515)"><path fill="#7f00ff" d="M 94.703125 8.355469 L 94.699219 8.355469 C 94.675781 9.625 94.5 9.820312 93.273438 9.847656 L 93.273438 9.855469 C 94.507812 9.882812 94.679688 10.082031 94.699219 11.371094 L 94.703125 11.371094 C 94.722656 10.089844 94.890625 9.886719 96.101562 9.855469 L 96.101562 9.847656 C 94.894531 9.816406 94.722656 9.613281 94.703125 8.355469 " fill-opacity="1" fill-rule="nonzero"/></g><g clip-path="url(#0b7a29cc3f)"><path fill="#7f00ff" d="M 98.328125 9.753906 L 98.324219 9.753906 C 98.3125 10.433594 98.21875 10.539062 97.5625 10.554688 L 97.5625 10.558594 C 98.222656 10.574219 98.316406 10.679688 98.324219 11.371094 L 98.328125 11.371094 C 98.339844 10.683594 98.429688 10.574219 99.078125 10.558594 L 99.078125 10.554688 C 98.433594 10.539062 98.339844 10.429688 98.328125 9.753906 " fill-opacity="1" fill-rule="nonzero"/></g><g clip-path="url(#43e4c761a6)"><path fill="#7f00ff" d="M 96.914062 8.207031 C 96.90625 8.621094 96.847656 8.6875 96.445312 8.695312 L 96.445312 8.699219 C 96.851562 8.707031 96.90625 8.773438 96.914062 9.199219 C 96.921875 8.777344 96.976562 8.710938 97.375 8.699219 L 97.375 8.695312 C 96.976562 8.6875 96.921875 8.621094 96.914062 8.207031 " fill-opacity="1" fill-rule="nonzero"/></g><g fill="#7f00ff" fill-opacity="1"><g transform="translate(47.988202, 17.671739)"><g><path d="M 5.0625 0.15625 C 6.8125 0.15625 7.984375 -0.234375 9 -0.96875 C 8.9375 -1.34375 8.84375 -1.84375 8.90625 -2.375 C 7.78125 -1.3125 6.515625 -0.9375 5.234375 -0.9375 C 3.078125 -0.9375 1.984375 -1.9375 1.984375 -3.390625 C 1.984375 -4.953125 3.265625 -5.828125 5.296875 -5.8125 C 6.203125 -5.8125 7.453125 -5.59375 8.90625 -4.71875 C 8.84375 -5.234375 8.84375 -5.625 8.90625 -6.15625 C 7.453125 -6.75 6.265625 -6.90625 5.21875 -6.90625 C 2.28125 -6.90625 0.421875 -5.6875 0.421875 -3.390625 C 0.421875 -1.203125 2.09375 0.15625 5.0625 0.15625 Z M 5.0625 0.15625 "/></g></g></g><g fill="#7f00ff" fill-opacity="1"><g transform="translate(57.477483, 17.671739)"><g><path d="M 6.40625 0 C 6.171875 -0.78125 6.109375 -1.640625 6.109375 -2.796875 C 6.109375 -4.4375 5.078125 -5.015625 3.3125 -5.015625 C 2.125 -5.015625 1.234375 -4.71875 0.546875 -4.40625 C 0.609375 -4.09375 0.609375 -3.46875 0.546875 -3.109375 C 1.078125 -3.625 2.046875 -4 3.09375 -4 C 4.390625 -4 4.671875 -3.46875 4.71875 -2.65625 L 3.15625 -2.65625 C 1.296875 -2.65625 0.390625 -2.09375 0.390625 -1.203125 C 0.390625 -0.453125 1.03125 0.140625 2.34375 0.140625 C 3.578125 0.140625 4.234375 -0.359375 4.734375 -1.125 C 4.765625 -0.765625 4.828125 -0.375 4.953125 0 Z M 3.046875 -0.828125 C 2.3125 -0.828125 1.921875 -1.078125 1.921875 -1.515625 C 1.921875 -2.0625 2.625 -2.28125 3.96875 -2.28125 L 4.734375 -2.28125 L 4.734375 -2.125 C 4.734375 -1.875 4.71875 -1.609375 4.734375 -1.328125 C 4.265625 -1.015625 3.703125 -0.828125 3.046875 -0.828125 Z M 3.046875 -0.828125 "/></g></g></g><g fill="#7f00ff" fill-opacity="1"><g transform="translate(64.276171, 17.671739)"><g><path d="M 0.5625 0 L 2.125 0 L 2.125 -1.953125 C 2.125 -3.09375 2.671875 -3.890625 3.625 -3.890625 C 4.484375 -3.890625 4.9375 -3.203125 4.9375 -2.125 L 4.9375 0 L 6.46875 0 C 6.3125 -0.875 6.34375 -1.984375 6.34375 -2.9375 C 6.34375 -4.0625 5.875 -5.015625 4.484375 -5.015625 C 3.3125 -5.015625 2.421875 -4.203125 2.078125 -3.09375 L 1.953125 -3.09375 C 2 -3.78125 2.0625 -4.328125 2.234375 -5.046875 C 1.859375 -4.875 1.171875 -4.765625 0.5625 -4.71875 C 0.765625 -2.859375 0.765625 -1.421875 0.5625 0 Z M 0.5625 0 "/></g></g></g><g fill="#7f00ff" fill-opacity="1"><g transform="translate(71.237379, 17.671739)"><g><path d="M 4.546875 -4.859375 C 4.09375 -3.65625 3.65625 -2.15625 3.109375 -0.828125 C 2.578125 -2.140625 2.125 -3.65625 1.65625 -4.859375 C 1.171875 -4.75 0.609375 -4.765625 0.015625 -4.859375 C 0.875 -3.171875 1.53125 -1.640625 2.140625 0 L 4.03125 0 C 4.734375 -1.796875 5.28125 -3.171875 6.15625 -4.859375 C 5.578125 -4.75 5.0625 -4.765625 4.546875 -4.859375 Z M 4.546875 -4.859375 "/></g></g></g><g fill="#7f00ff" fill-opacity="1"><g transform="translate(77.413082, 17.671739)"><g><path d="M 6.40625 0 C 6.171875 -0.78125 6.109375 -1.640625 6.109375 -2.796875 C 6.109375 -4.4375 5.078125 -5.015625 3.3125 -5.015625 C 2.125 -5.015625 1.234375 -4.71875 0.546875 -4.40625 C 0.609375 -4.09375 0.609375 -3.46875 0.546875 -3.109375 C 1.078125 -3.625 2.046875 -4 3.09375 -4 C 4.390625 -4 4.671875 -3.46875 4.71875 -2.65625 L 3.15625 -2.65625 C 1.296875 -2.65625 0.390625 -2.09375 0.390625 -1.203125 C 0.390625 -0.453125 1.03125 0.140625 2.34375 0.140625 C 3.578125 0.140625 4.234375 -0.359375 4.734375 -1.125 C 4.765625 -0.765625 4.828125 -0.375 4.953125 0 Z M 3.046875 -0.828125 C 2.3125 -0.828125 1.921875 -1.078125 1.921875 -1.515625 C 1.921875 -2.0625 2.625 -2.28125 3.96875 -2.28125 L 4.734375 -2.28125 L 4.734375 -2.125 C 4.734375 -1.875 4.71875 -1.609375 4.734375 -1.328125 C 4.265625 -1.015625 3.703125 -0.828125 3.046875 -0.828125 Z M 3.046875 -0.828125 "/></g></g></g><g fill="#7f00ff" fill-opacity="1"><g transform="translate(84.21177, 17.671739)"><g><path d="M 2.25 0 C 2.109375 -0.625 2.109375 -1.203125 2.109375 -1.828125 C 2.109375 -2.96875 2.625 -3.609375 3.65625 -3.609375 C 3.890625 -3.609375 4.171875 -3.5625 4.5 -3.46875 C 4.390625 -4 4.390625 -4.546875 4.5 -4.9375 C 3.65625 -5.140625 2.578125 -4.609375 2.09375 -3.0625 L 1.96875 -3.0625 C 2 -3.734375 2.0625 -4.3125 2.1875 -5.015625 C 1.8125 -4.84375 1.140625 -4.734375 0.5625 -4.703125 C 0.765625 -3.109375 0.765625 -1.5 0.5625 0 Z M 2.25 0 "/></g></g></g></svg>